<?xml version="1.0" encoding="UTF-8"?>
<svg id="Camada_2" data-name="Camada 2" xmlns="http://www.w3.org/2000/svg" viewBox="0 0 250 250">
  <defs>
    <style>
      .cls-1 {
        fill: #fff;
      }
    </style>
  </defs>
  <g id="Camada_1-2" data-name="Camada 1">
    <g>
      <path class="cls-1" d="m117.19,0C122.4,0,127.6,0,132.81,0c.63.14,1.25.35,1.88.4,19.46,1.45,37.68,7.04,54.29,17.26,32.27,19.87,52.14,48.44,59.1,85.8.85,4.54,1.29,9.15,1.92,13.73v15.62c-.7,1.54-.42,3.2-.59,4.81-2.69,24.72-11.64,46.9-27.42,66.13-19.62,23.91-44.73,38.76-75.22,44.31-4.62.84-9.3,1.3-13.96,1.94h-15.62c-3.05-.38-6.11-.7-9.15-1.14-24.88-3.55-46.89-13.48-65.68-30.18C20.65,199.39,7.09,175.41,1.94,146.78c-.83-4.62-1.3-9.31-1.94-13.97,0-5.21,0-10.42,0-15.62.63-1.55.41-3.2.59-4.81,2.9-26.48,12.91-49.89,30.57-69.85C50.58,20.58,74.77,6.93,103.71,1.89,108.18,1.11,112.69.62,117.19,0ZM52.26,198.94c1.06-.23,1.83-.37,2.59-.57,11.71-3.06,23.42-6.1,35.11-9.2,1.36-.36,2.48-.24,3.72.39,14.44,7.32,29.66,9.67,45.68,7.29,41.48-6.15,70.34-47.64,61.64-88.75-8.45-39.96-45.88-65.56-86.03-58.83-47.16,7.91-74.82,58.2-56.38,102.5,4.72,6.28,3.53,12.76,1.28,19.67-2.9,8.93-5.05,18.1-7.62,27.51Z"/>
      <path class="cls-1" d="m70.22,181.2c1.6-5.91,2.88-11.6,4.73-17.1,1.29-3.84.87-6.81-1.21-10.4-21.92-37.91,1.91-86.35,45.23-92.27,34.48-4.71,65.48,18.83,70.35,53.42,4.56,32.36-18.51,63.9-50.57,69.28-15.38,2.58-29.75-.04-43.17-7.92-1.29-.76-2.38-.98-3.87-.57-6.58,1.81-13.19,3.47-19.8,5.19-.45.12-.9.2-1.69.36Zm77.06-22.31c1.17-.07,2.33-.01,3.43-.24,8.78-1.82,15.04-6.82,14.86-16.11-.02-1.26-.34-2.22-1.52-2.78-5.13-2.45-10.24-4.93-15.39-7.33-1.72-.8-3.04-.22-4.18,1.35-1.62,2.23-3.48,4.29-5.17,6.47-1.17,1.5-2.49,1.82-4.27,1.11-10.97-4.38-19.33-11.77-25.39-21.85-.88-1.47-.84-2.65.26-3.98,1.54-1.88,2.97-3.87,4.41-5.83.8-1.1,1.17-2.28.59-3.65-2.12-5.01-4.19-10.04-6.31-15.04-.41-.98-.97-2.09-2.08-2.25-3.45-.47-7.02-1.16-9.92,1.6-5.83,5.53-7.97,12.32-6.5,20.17,1.31,6.99,5.22,12.7,9.42,18.23,7.9,10.44,17.08,19.43,29.21,24.84,5.91,2.64,11.89,5.3,18.57,5.3Z"/>
    </g>
  </g>
</svg>