<?xml version="1.0" encoding="UTF-8"?>
<svg id="Camada_2" data-name="Camada 2" xmlns="http://www.w3.org/2000/svg" viewBox="0 0 250 250">
  <defs>
    <style>
      .cls-1 {
        fill: #fff;
      }
    </style>
  </defs>
  <g id="Camada_1-2" data-name="Camada 1">
    <g>
      <path class="cls-1" d="m117.19,0C122.4,0,127.6,0,132.81,0c.63.14,1.25.35,1.88.4,19.46,1.45,37.68,7.04,54.29,17.26,32.27,19.87,52.14,48.44,59.1,85.8.85,4.54,1.29,9.15,1.92,13.73v15.62c-.7,1.54-.42,3.2-.59,4.81-2.69,24.72-11.64,46.9-27.42,66.13-19.62,23.91-44.73,38.76-75.22,44.31-4.62.84-9.3,1.3-13.96,1.94h-15.62c-3.05-.38-6.11-.7-9.15-1.14-23.06-3.28-43.77-12.07-61.78-26.87C22.36,202.35,7.48,177.28,1.94,146.78c-.84-4.62-1.31-9.31-1.94-13.97,0-5.21,0-10.42,0-15.62.63-1.55.41-3.2.59-4.81,2.89-26.48,12.91-49.89,30.57-69.85C50.58,20.58,74.77,6.93,103.71,1.89,108.18,1.11,112.69.62,117.19,0Zm8.8,53.22c-11.11.06-21.44-.12-31.77.5-8.31.5-16.29,2.21-23.32,6.93-11.74,7.89-16.51,19.56-17.12,33.13-.94,20.82-.89,41.65,0,62.47.34,8.15,2.24,15.95,6.87,22.84,7.9,11.74,19.56,16.51,33.13,17.13,20.82.95,41.65.93,62.47,0,11.5-.51,21.87-4.07,29.83-12.93,7.04-7.84,9.66-17.34,10.19-27.57.88-17.08.47-34.17.4-51.26-.02-5.04-.3-10.08-.83-15.1-2.06-19.39-15.86-33.18-35.25-35.18-11.77-1.22-23.57-.82-34.59-.96Z"/>
      <path class="cls-1" d="m125.01,183.89c-10.81-.33-21.64.14-32.44-.74-15.32-1.24-24.78-10.39-25.66-25.77-1.24-21.78-1.23-43.59.05-65.36.55-9.44,4.55-17.25,13.3-21.88,4.92-2.6,10.33-3.45,15.8-3.58,20.49-.46,40.99-.96,61.47.33,15.17.96,24.68,10.39,25.54,25.57,1.23,21.7,1.23,43.42,0,65.12-.85,15.01-10.45,24.33-25.38,25.55-10.88.89-21.79.42-32.68.75Zm36.82-58.95c-.05-20.35-16.41-36.72-36.77-36.78-20.41-.05-36.95,16.47-36.9,36.88.04,20.34,16.42,36.72,36.77,36.78,20.4.06,36.95-16.48,36.9-36.89Zm10.07-38.25c0-4.72-3.74-8.54-8.45-8.59-4.85-.06-8.7,3.73-8.71,8.56,0,4.75,3.71,8.53,8.43,8.58,4.85.05,8.71-3.74,8.72-8.56Z"/>
      <path class="cls-1" d="m124.97,101.08c13.16-.01,23.91,10.68,23.95,23.83.04,13.26-10.74,24.05-24.01,24.01-13.14-.04-23.84-10.8-23.83-23.95.01-13.15,10.74-23.87,23.89-23.89Z"/>
    </g>
  </g>
</svg>