<?xml version="1.0" encoding="UTF-8"?>
<svg id="Camada_2" data-name="Camada 2" xmlns="http://www.w3.org/2000/svg" viewBox="0 0 250 250">
  <defs>
    <style>
      .cls-1 {
        fill: #fff;
      }
    </style>
  </defs>
  <g id="Camada_1-2" data-name="Camada 1">
    <g>
      <path class="cls-1" d="m250,117.19v15.62c-.38,3.05-.71,6.11-1.14,9.16-3.56,24.97-13.6,47.01-30.38,65.84-19.26,21.6-43.19,35.09-71.71,40.25-4.62.84-9.3,1.31-13.95,1.95h-15.62c-3.05-.38-6.11-.7-9.15-1.14-24.88-3.56-46.86-13.52-65.65-30.22C20.69,199.36,7.14,175.39,1.95,146.78c-.84-4.62-1.31-9.31-1.95-13.97,0-5.21,0-10.42,0-15.62.55-4.18.96-8.38,1.66-12.53,4.42-26,15.83-48.5,34.35-67.27C54.71,18.44,77.21,6.54,103.47,1.92c4.54-.8,9.14-1.29,13.72-1.92,5.21,0,10.42,0,15.62,0,4.26.56,8.54.97,12.76,1.69,23.48,4.01,44.25,13.82,62.04,29.65,21.75,19.36,35.35,43.39,40.46,72.12.81,4.54,1.29,9.15,1.92,13.72Zm-125.06-48.99c-21.15,0-42.31-.01-63.46,0-10.58,0-17.04,6.46-17.04,17.01,0,26.52,0,53.04,0,79.57,0,10.55,6.46,17.02,17.03,17.02,42.39.01,84.77,0,127.16,0,1.62,0,3.25,0,4.85-.41,7.38-1.86,12.06-8,12.07-16,.02-26.6-.17-53.21.1-79.81.1-9.55-6.59-17.66-17.5-17.49-21.07.33-42.14.1-63.21.1Z"/>
      <path class="cls-1" d="m192.61,87.68v3.28c0,24.33,0,48.65,0,72.98,0,4.53-.47,4.99-5.08,4.99-41.74,0-83.48,0-125.22,0-4.41,0-4.92-.51-4.92-4.89,0-24.41,0-48.82,0-73.23,0-.85,0-1.71,0-3.14,4.56,3.61,8.62,6.81,12.67,10.03,16.69,13.25,33.37,26.51,50.06,39.76,3.57,2.83,6.21,2.82,9.86-.07,19.75-15.67,39.49-31.36,59.24-47.04.94-.75,1.89-1.49,3.39-2.67Z"/>
      <path class="cls-1" d="m70.21,81.17h109.07c.07.89-.69,1.09-1.13,1.45-17.12,13.62-34.28,27.21-51.37,40.86-1.34,1.07-2.14,1.1-3.5.02-17.23-13.75-34.5-27.44-51.77-41.15-.31-.25-.6-.54-1.3-1.18Z"/>
    </g>
  </g>
</svg>