<?xml version="1.0" encoding="UTF-8"?>
<svg id="Camada_2" data-name="Camada 2" xmlns="http://www.w3.org/2000/svg" viewBox="0 0 219.73 317.13">
  <defs>
    <style>
      .cls-1 {
        fill: #fff;
      }
    </style>
  </defs>
  <g id="Camada_1-2" data-name="Camada 1">
    <g>
      <path class="cls-1" d="m219.31,317.03c-.62.04-1.24.1-1.86.1-55.74,0-111.48,0-167.22,0-.55,0-1.1-.04-1.65-.06-.02-1.17-.05-2.35-.05-3.52,0-81.51,0-163.03,0-244.54,0-1.3.21-2.63-.28-3.9-1-1.17-1.25.26-1.58.58-5.13,5.02-10.2,10.1-15.28,15.17-8.84,8.83-17.64,17.7-26.53,26.48-1.14,1.13-1.51,2.26-1.51,3.8.03,67.18.03,134.36.03,201.55q0,2.88-2.88,2.75c-.01-.97-.03-1.93-.03-2.9,0-67.05,0-134.11,0-201.16,0-1.24-.07-2.48-.11-3.72,4.64-4.71,9.26-9.45,13.93-14.13,11.06-11.09,22.16-22.15,33.23-33.23.28-.29.48-.66.72-.99.4-.85.29-1.76.29-2.65,0-13.92,0-27.84,0-41.75,0-.82.08-1.66-.27-2.44,0-.41,0-.82,0-1.24.11-.28.22-.57.33-.85,4.91,4.84,9.84,9.67,14.74,14.52,2.8,2.77,5.6,5.53,8.33,8.37,1.05,1.09,1.67,1.28,2.89.05,10.74-10.84,21.61-21.56,32.33-32.44,1.52-1.54,2.15-.79,3.19.25,16.3,16.32,32.61,32.63,48.93,48.94,19.88,19.88,39.75,39.75,59.63,59.63.29.29.53.63.79.94-.04,1.03-.12,2.07-.12,3.1,0,44.97,0,89.94,0,134.91,0,22.8.01,45.59.02,68.39Zm-130.89-1.59c.54-.41.4-.98.35-1.53.96-.02,1.92-.07,2.88-.07,13.13-.01,26.27-.01,39.4-.02-.25,1.33.3,1.71,1.63,1.72,1.36,0,1.85-.45,1.64-1.75,26.8.01,53.6,0,80.4.09,2.1,0,1.73-1.19,1.73-2.38,0-65.83,0-131.67.04-197.5,0-1.51-.45-2.56-1.51-3.61-17.67-17.59-35.3-35.23-52.94-52.85-17.4-17.38-34.8-34.75-52.17-52.16-1.06-1.06-1.7-1.33-2.91-.11-10.06,10.16-20.18,20.25-30.31,30.33-.97.97-1.16,1.53-.07,2.61,8.49,8.4,16.92,16.87,25.37,25.31,19.06,19.03,38.11,38.06,57.19,57.06,1.01,1.01,1.39,2.03,1.39,3.45-.04,29.01-.03,58.03-.02,87.04,0,.48-.02.97,0,1.45.02.94-.43,1.3-1.37,1.42-2.07.25-1.79-1.15-1.78-2.38,0-28.67,0-57.34.02-86,0-1.43-.21-2.58-1.33-3.7-27.16-27.05-54.29-54.13-81.38-81.25-1.21-1.21-1.84-1.26-3.06-.02-6.18,6.32-12.44,12.56-18.74,18.77-1.01,1-1.42,1.98-1.42,3.41.03,81.17.03,162.34.03,243.5,0,1.93.07,3.87-.02,5.8-.06,1.32.31,1.79,1.71,1.78,10.77-.07,21.55-.05,32.33-.07-.32,2.89,1.84,1.3,2.94,1.64ZM51.58,55.67c.19.12.39.25.58.37,5.93-6.05,11.86-12.1,17.81-18.13.94-.95.38-1.53-.31-2.22-4.25-4.23-8.49-8.48-12.73-12.73-1.68-1.68-3.36-3.34-5.35-5.33v38.03Z"/>
      <path class="cls-1" d="m48.25,65.11c.49,1.27.28,2.6.28,3.9,0,81.51,0,163.03,0,244.54,0,1.17.03,2.35.05,3.52-.77-.57-.44-1.4-.44-2.1-.02-82.67-.01-165.34,0-248.01,0-.62.07-1.24.11-1.85Z"/>
      <path class="cls-1" d="m.35,107.65c.04,1.24.11,2.48.11,3.72,0,67.05,0,134.11,0,201.16,0,.97.02,1.93.03,2.9-.76-.57-.42-1.4-.42-2.11-.02-67.82-.02-135.64,0-203.46,0-.74-.17-1.53.28-2.22Z"/>
      <path class="cls-1" d="m219.31,317.03c0-22.8-.02-45.59-.02-68.39,0-44.97,0-89.94,0-134.91,0-1.03.08-2.07.12-3.1.44.77.26,1.62.26,2.43,0,67.12,0,134.25,0,201.37,0,.87.28,1.8-.36,2.59Z"/>
      <path class="cls-1" d="m48.25,12.46c.35.79.27,1.62.27,2.44,0,13.92,0,27.84,0,41.75,0,.89.11,1.8-.29,2.65-.04-3.64-.1-7.29-.1-10.93-.01-11.08,0-22.16,0-33.24,0-.89.08-1.78.12-2.67Z"/>
      <path class="cls-1" d="m48.59,10.38c-.11.28-.22.57-.33.85.02-.32-.5-.84.33-.85Z"/>
      <path class="cls-1" d="m88.42,315.44c0-.55.02-1.11.03-1.66,0,0,.02,0,.02,0,.14-.04.24,0,.31.13.05.55.18,1.12-.35,1.53Z"/>
      <path class="cls-1" d="m88.46,313.77s-.02,0-.02,0c-1.01.03-2.02.06-3.03.09,0-23.77,0-47.55.02-71.32,0-1.1.05-2.2.08-3.3,15.86,0,31.73,0,47.59-.01.07.08.11.17.1.27-.23,5.43-.24,10.85.28,16.26.06,4.29.12,8.57.18,12.85-.22.53-.22,1.07.02,1.59.12,9.25.24,18.51.35,27.76-.05.75-.15,1.5-.15,2.25,0,4.53.04,9.05.06,13.58-.98.02-1.97.04-2.95.06.06-.28.11-.57.17-.85.32-.56.29-1.12-.02-1.67,0-.27,0-.54-.01-.81.46-2.06.24-4.12-.07-6.18-.07-5.14-.15-10.29-.22-15.43.03-.03.09-.07.09-.09-.02-.08-.07-.15-.1-.22-.03-2.11-.07-4.21-.1-6.32.11-.11.11-.22-.01-.32-.03-2.2-.1-4.41-.08-6.61.06-6.11-.84-12.21-.36-18.33.59-4.82.34-9.64-.04-14.45-.4-.73-1.1-.44-1.67-.44-12.76-.02-25.52-.02-38.27,0-.59,0-1.26-.19-1.72.41-.4.92-.25,1.9-.25,2.86,0,20.9,0,41.8,0,62.7,0,.82-.12,1.66.25,2.45,0,.26,0,.52,0,.79-.31.56-.31,1.12,0,1.68-.04.25-.08.51-.12.76Z"/>
      <path class="cls-1" d="m133.12,239.23c-15.86,0-31.73,0-47.59.01.61-.68,1.42-.4,2.14-.4,14.43-.02,28.87-.02,43.3,0,.72,0,1.53-.27,2.15.39Z"/>
      <path class="cls-1" d="m133.5,255.77c-.52-5.41-.5-10.84-.28-16.26.48,5.41.35,10.84.28,16.26Z"/>
      <path class="cls-1" d="m133.97,313.8c-.02-4.53-.06-9.05-.06-13.58,0-.75.1-1.5.15-2.25.56,5.28.26,10.58.33,15.88-.14-.02-.27-.04-.41-.05Z"/>
      <path class="cls-1" d="m133.7,270.21c-.25-.53-.24-1.06-.02-1.59.23.53.24,1.06.02,1.59Z"/>
      <path class="cls-1" d="m88.58,310.55c-.37-.79-.25-1.63-.25-2.45,0-20.9,0-41.8,0-62.7,0-.96-.15-1.94.25-2.86.05.68.14,1.37.14,2.05,0,21.23,0,42.46,0,63.69,0,.75-.1,1.51-.15,2.26Z"/>
      <path class="cls-1" d="m130.25,242.57c.38,4.82.62,9.63.04,14.45-.01-4.82-.03-9.63-.04-14.45Z"/>
      <path class="cls-1" d="m131.08,304.34c.31,2.06.52,4.11.07,6.18-.23-2.06-.2-4.12-.07-6.18Z"/>
      <path class="cls-1" d="m88.58,313.01c-.31-.56-.31-1.12,0-1.68.18.56.18,1.12,0,1.68Z"/>
      <path class="cls-1" d="m131.16,311.33c.32.55.34,1.11.02,1.67,0-.56-.02-1.11-.02-1.67Z"/>
      <path class="cls-1" d="m130.73,281.97c.12.1.13.21.01.32-.08-.1-.08-.21-.01-.32Z"/>
      <path class="cls-1" d="m130.84,288.6c.04.07.08.14.1.22,0,.02-.06.06-.09.09-.09-.1-.09-.2-.01-.31Z"/>
    </g>
  </g>
</svg>