<?xml version="1.0" encoding="utf-8"?>
<!-- Generator: Adobe Illustrator 27.7.0, SVG Export Plug-In . SVG Version: 6.00 Build 0)  -->
<svg version="1.1" id="Camada_1" xmlns="http://www.w3.org/2000/svg" xmlns:xlink="http://www.w3.org/1999/xlink" x="0px" y="0px"
	 viewBox="0 0 48 48" style="enable-background:new 0 0 48 48;" xml:space="preserve">
<style type="text/css">
	.st0{fill:#FFFFFF;}
</style>
<path class="st0" d="M36,43.1c-0.5,0-1-0.2-1.3-0.5L29.8,38H18.3c-0.3,0-0.5-0.1-0.7-0.3s-0.3-0.4-0.3-0.7s0.1-0.5,0.3-0.7
	s0.4-0.3,0.7-0.3h11.8c0.3,0,0.5,0.1,0.7,0.3l5.2,4.8V37c0-0.3,0.1-0.5,0.3-0.7S36.7,36,37,36h4c0.8,0,1.6-0.3,2.1-0.9
	S44,33.8,44,33V16c0-0.5-0.1-1-0.4-1.5c-0.3-0.5-0.6-0.8-1.1-1.1c-0.2-0.1-0.4-0.4-0.5-0.6c-0.1-0.3,0-0.5,0.1-0.8
	c0.1-0.2,0.4-0.4,0.6-0.5c0.3-0.1,0.5,0,0.8,0.1c0.8,0.4,1.4,1.1,1.8,1.8c0.4,0.8,0.7,1.6,0.7,2.5v17c0,1.3-0.5,2.6-1.5,3.5
	C43.6,37.5,42.3,38,41,38h-3v3.1c0,0.5-0.2,1-0.6,1.4C37,42.9,36.5,43.1,36,43.1L36,43.1z"/>
<path class="st0" d="M12,38.1c-0.3,0-0.6-0.1-0.8-0.2c-0.4-0.2-0.7-0.4-0.9-0.7c-0.2-0.3-0.3-0.7-0.3-1.1V33H7
	c-1.3,0-2.6-0.5-3.5-1.5C2.5,30.6,2,29.3,2,28V11c0-1.3,0.5-2.6,1.5-3.5S5.7,6,7,6h28c1.3,0,2.6,0.5,3.5,1.5C39.5,8.4,40,9.7,40,11
	v17c0,1.3-0.5,2.6-1.5,3.5C37.6,32.5,36.3,33,35,33H18.2l-4.9,4.5C13,37.9,12.5,38.1,12,38.1z M7,8C6.2,8,5.4,8.3,4.9,8.9
	C4.3,9.4,4,10.2,4,11v17c0,0.8,0.3,1.6,0.9,2.1C5.4,30.7,6.2,31,7,31h4c0.3,0,0.5,0.1,0.7,0.3S12,31.7,12,32v4.1l5.2-4.8
	c0.2-0.2,0.4-0.3,0.7-0.3H35c0.8,0,1.6-0.3,2.1-0.9c0.6-0.6,0.9-1.3,0.9-2.1V11c0-0.8-0.3-1.6-0.9-2.1C36.6,8.3,35.8,8,35,8H7z"/>
<path class="st0" d="M30,23c-0.7,0-1.4-0.2-1.9-0.6c-0.6-0.4-1-0.9-1.3-1.6c-0.3-0.6-0.3-1.3-0.2-2c0.1-0.7,0.5-1.3,1-1.8
	s1.1-0.8,1.8-1c0.7-0.1,1.4-0.1,2,0.2c0.6,0.3,1.2,0.7,1.6,1.3c0.4,0.6,0.6,1.3,0.6,1.9c0,0.9-0.4,1.8-1,2.5
	C31.8,22.6,30.9,23,30,23L30,23z M30,18c-0.3,0-0.6,0.1-0.8,0.3c-0.2,0.2-0.4,0.4-0.6,0.7c-0.1,0.3-0.1,0.6-0.1,0.9
	c0.1,0.3,0.2,0.6,0.4,0.8c0.2,0.2,0.5,0.4,0.8,0.4c0.3,0.1,0.6,0,0.9-0.1c0.3-0.1,0.5-0.3,0.7-0.6c0.2-0.2,0.3-0.5,0.3-0.8
	c0-0.4-0.2-0.8-0.4-1.1S30.4,18,30,18z"/>
<path class="st0" d="M21,23c-0.7,0-1.4-0.2-1.9-0.6c-0.6-0.4-1-0.9-1.3-1.6c-0.3-0.6-0.3-1.3-0.2-2c0.1-0.7,0.5-1.3,1-1.8
	s1.1-0.8,1.8-1c0.7-0.1,1.4-0.1,2,0.2c0.6,0.3,1.2,0.7,1.6,1.3c0.4,0.6,0.6,1.3,0.6,1.9c0,0.9-0.4,1.8-1,2.5
	C22.8,22.6,21.9,23,21,23L21,23z M21,18c-0.3,0-0.6,0.1-0.8,0.3c-0.2,0.2-0.4,0.4-0.6,0.7c-0.1,0.3-0.1,0.6-0.1,0.9
	c0.1,0.3,0.2,0.6,0.4,0.8c0.2,0.2,0.5,0.4,0.8,0.4c0.3,0.1,0.6,0,0.9-0.1c0.3-0.1,0.5-0.3,0.7-0.6c0.2-0.2,0.3-0.5,0.3-0.8
	c0-0.4-0.2-0.8-0.4-1.1S21.4,18,21,18z"/>
<path class="st0" d="M12,23c-0.7,0-1.4-0.2-1.9-0.6c-0.6-0.4-1-0.9-1.3-1.6c-0.3-0.6-0.3-1.3-0.2-2s0.5-1.3,1-1.8
	c0.5-0.5,1.1-0.8,1.8-1c0.7-0.1,1.4-0.1,2,0.2c0.6,0.3,1.2,0.7,1.6,1.3c0.4,0.6,0.6,1.3,0.6,1.9c0,0.9-0.4,1.8-1,2.5
	C13.8,22.6,12.9,23,12,23L12,23z M12,18c-0.3,0-0.6,0.1-0.8,0.3c-0.2,0.2-0.4,0.4-0.6,0.7c-0.1,0.3-0.1,0.6-0.1,0.9
	c0.1,0.3,0.2,0.6,0.4,0.8c0.2,0.2,0.5,0.4,0.8,0.4c0.3,0.1,0.6,0,0.9-0.1c0.3-0.1,0.5-0.3,0.7-0.6c0.2-0.2,0.3-0.5,0.3-0.8
	c0-0.4-0.2-0.8-0.4-1.1C12.8,18.2,12.4,18,12,18z"/>
</svg>
